<svg xmlns="http://www.w3.org/2000/svg" viewBox="0 -0.5 32 32" shape-rendering="crispEdges">
<path stroke="#000000" d="M0 0h32M0 1h1M31 1h1M0 2h1M31 2h1M0 3h1M31 3h1M0 4h1M31 4h1M0 5h1M31 5h1M0 6h1M31 6h1M0 7h1M31 7h1M0 8h1M31 8h1M0 9h1M18 9h1M31 9h1M0 10h1M17 10h5M31 10h1M0 11h1M16 11h5M31 11h1M0 12h1M15 12h6M31 12h1M0 13h1M15 13h7M31 13h1M0 14h1M4 14h1M14 14h6M31 14h1M0 15h1M4 15h2M14 15h6M31 15h1M0 16h1M5 16h1M13 16h8M31 16h1M0 17h1M5 17h1M12 17h9M31 17h1M0 18h1M6 18h1M11 18h11M31 18h1M0 19h1M7 19h12M21 19h2M31 19h1M0 20h1M8 20h11M21 20h2M31 20h1M0 21h1M8 21h6M17 21h2M22 21h1M31 21h1M0 22h1M7 22h7M18 22h1M31 22h1M0 23h1M7 23h1M12 23h2M19 23h1M31 23h1M0 24h1M6 24h2M13 24h2M19 24h6M31 24h1M0 25h1M6 25h2M13 25h11M31 25h1M0 26h1M5 26h18M31 26h1M0 27h32M0 28h32M0 29h32M0 30h32M0 31h32" /><path stroke="#ff0000" d="M1 1h30M1 2h11M19 2h12M1 3h8M21 3h10M1 4h7M18 4h13M1 5h5M24 5h7M1 6h10M25 6h6M1 7h3M26 7h5M1 8h3M27 8h4M1 9h2M28 9h3M1 10h2M28 10h3M1 11h1M29 11h2M1 12h1M29 12h2M1 13h1M29 13h2M1 14h1M30 14h1M1 15h1M30 15h1M1 16h1M30 16h1M1 17h1M24 17h7M1 18h4M29 18h2M1 19h2M30 19h1M1 20h1M29 20h2M1 21h1M29 21h2M1 22h2M29 22h2M1 23h3M28 23h3M1 24h3M27 24h4M1 25h4M27 25h4M1 26h4M26 26h5" /><path stroke="#ffff00" d="M12 2h7M9 3h12M8 4h10M6 5h18M11 6h14M4 7h22M4 8h23M3 9h14M20 9h8M3 10h13M22 10h6M2 11h13M22 11h7M2 12h12M21 12h8M2 13h12M22 13h7M2 14h1M6 14h8M20 14h10M2 15h2M6 15h7M21 15h9M2 16h3M6 16h7M21 16h9M2 17h3M6 17h5M22 17h2M7 18h3M23 18h6M3 19h3M23 19h7M2 20h5M19 20h2M23 20h6M2 21h5M15 21h1M19 21h2M23 21h6M3 22h4M14 22h3M20 22h9M4 23h2M9 23h2M14 23h4M21 23h7M4 24h2M8 24h4M16 24h3M26 24h1M8 25h5M25 25h2M24 26h2" /><path stroke="#808080" d="M17 9h1M19 9h1M16 10h1M15 11h1M21 11h1M14 12h1M14 13h1M3 14h1M5 14h1M13 15h1M20 15h1M11 17h1M21 17h1M5 18h1M10 18h1M22 18h1M6 19h1M19 19h2M7 20h1M7 21h1M14 21h1M16 21h1M21 21h1M17 22h1M19 22h1M6 23h1M8 23h1M11 23h1M18 23h1M20 23h1M12 24h1M15 24h1M25 24h1M5 25h1M24 25h1M23 26h1" /></svg>